HIERARCHY
ROOT Hips
{
  OFFSET -35.4901 99.2528 17.4586
  CHANNELS 6 Xposition Yposition Zposition Zrotation Xrotation Yrotation
  JOINT LeftUpLeg
  {
    OFFSET 8.64259 1.95398 -2.38835
    CHANNELS 3 Zrotation Xrotation Yrotation
    JOINT LeftLeg
    {
      OFFSET 43.7702 0 0
      CHANNELS 3 Zrotation Xrotation Yrotation
      JOINT LeftFoot
      {
        OFFSET 40.6238 0 0
        CHANNELS 3 Zrotation Xrotation Yrotation
        JOINT LeftToeBase
        {
          OFFSET 12.7242 0 0
          CHANNELS 3 Zrotation Xrotation Yrotation
          End Site
          {
            OFFSET 0 0 0
          }
        }
      }
    }
  }
  JOINT RightUpLeg
  {
    OFFSET -8.2249 1.95398 -2.59336
    CHANNELS 3 Zrotation Xrotation Yrotation
    JOINT RightLeg
    {
      OFFSET 43.5653 0 0
      CHANNELS 3 Zrotation Xrotation Yrotation
      JOINT RightFoot
      {
        OFFSET 40.6238 0 0
        CHANNELS 3 Zrotation Xrotation Yrotation
        JOINT RightToeBase
        {
          OFFSET 12.7242 0 0
          CHANNELS 3 Zrotation Xrotation Yrotation
          End Site
          {
            OFFSET 0 0 0
          }
        }
      }
    }
  }
  JOINT Spine
  {
    OFFSET 0.165834 0.87714 6.61349
    CHANNELS 3 Zrotation Xrotation Yrotation
    JOINT Spine1
    {
      OFFSET 7.38963 1.71661e-005 0
      CHANNELS 3 Zrotation Xrotation Yrotation
      JOINT Spine2
      {
        OFFSET 11.9445 1.14441e-005 0
        CHANNELS 3 Zrotation Xrotation Yrotation
        JOINT Spine3
        {
          OFFSET 14.7254 4.19617e-005 0
          CHANNELS 3 Zrotation Xrotation Yrotation
          JOINT Spine4
          {
            OFFSET 10.9679 0 0
            CHANNELS 3 Zrotation Xrotation Yrotation
            JOINT RightShoulder
            {
              OFFSET 2.46616 -1.6653 3.69651
              CHANNELS 3 Zrotation Xrotation Yrotation
              JOINT RightArm
              {
                OFFSET 13.0012 0 0
                CHANNELS 3 Zrotation Xrotation Yrotation
                JOINT RightForeArm
                {
                  OFFSET 28.7848 1.52588e-005 0
                  CHANNELS 3 Zrotation Xrotation Yrotation
                  JOINT RightHand
                  {
                    OFFSET 26.5688 1.52588e-005 0
                    CHANNELS 3 Zrotation Xrotation Yrotation
                    End Site
                    {
                      OFFSET 0 0 0
                    }
                  }
                }
              }
            }
            JOINT LeftShoulder
            {
              OFFSET 2.38034 -1.29275 -3.7523
              CHANNELS 3 Zrotation Xrotation Yrotation
              JOINT LeftArm
              {
                OFFSET 16.3182 6.10351e-005 0
                CHANNELS 3 Zrotation Xrotation Yrotation
                JOINT LeftForeArm
                {
                  OFFSET 27.0901 0 0
                  CHANNELS 3 Zrotation Xrotation Yrotation
                  JOINT LeftHand
                  {
                    OFFSET 24.5451 1.52588e-005 0
                    CHANNELS 3 Zrotation Xrotation Yrotation
                    End Site
                    {
                      OFFSET 0 0 0
                    }
                  }
                }
              }
            }
            JOINT Neck
            {
              OFFSET 5.0226 -0.0266342 0
              CHANNELS 3 Zrotation Xrotation Yrotation
              JOINT Head
              {
                OFFSET 6.69364 2.86102e-005 0
                CHANNELS 3 Zrotation Xrotation Yrotation
                End Site
                {
                  OFFSET 0 0 0
                }
              }
            }
          }
        }
      }
    }
  }
}
MOTION
Frames:	12
Frame Time:	0.0416667
31.9428 42.0779 0.396719 -4.06053 -79.2129 -4.11823 -26.9733 53.214 -25.2113 -144.356 18.8071 12.7275 89.7633 12.8273 -0.986532 -3.55759 0.464983 1.63684 50.4798 65.818 -171.93 -138.027 -23.2092 -4.37194 116.568 -27.0554 2.84996 -4.04285 -3.89557 7.99402 0.728697 12.2346 -90.4475 2.40804 1.28098 -0.851356 -9.2626 1.24227 -0.90693 -31.8021 1.47761 -0.426971 -11.7894 1.47761 -0.426971 87.2433 -16.8368 -119.675 -6.11837 23.1873 -47.6348 4.75923 -3.04074 -8.09405 -2.61147 0.252696 -28.4213 -89.8686 -24.9628 71.7062 2.23429 -11.6961 -79.5896 2.63688 -18.8195 0.0671144 -23.0927 2.08959 -16.2666 44.1828 -0.691661 -1.09048 -14.2144 -0.0448535 -0.176015 
31.8785 41.411 0.903939 -5.73712 -80.3631 -5.73178 -26.9194 53.7114 -24.9689 -145.71 18.1365 12.8011 91.1674 13.6634 -0.240417 -5.72412 2.17571 0.194281 52.2268 66.3211 -173.858 -139.338 -23.5418 -4.42512 117.427 -27.8683 2.29136 -4.50103 -5.8604 10.6192 0.73291 12.0731 -90.4355 2.73108 1.29303 -0.834087 -8.93953 1.25507 -0.890202 -31.4792 1.48392 -0.406854 -11.4665 1.48393 -0.406863 87.2596 -16.8822 -119.605 -5.95859 21.1715 -47.2677 4.83384 -2.24194 -8.6371 -0.261253 -0.19733 -27.2632 -89.822 -25.845 72.1485 0.97358 -9.5743 -79.0377 2.43859 -17.4171 0.0745274 -24.1512 2.33789 -16.9498 44.6142 -0.942901 -0.885539 -14.0654 -0.378188 -0.238353 
31.827 43.6671 0.408424 -5.81313 -77.652 -6.02933 -28.5323 54.4479 -23.4933 -142.262 20.0155 12.3976 91.0497 13.9116 -0.0632458 -5.34986 1.93467 0.393111 50.7943 65.7537 -171.772 -135.839 -24.8143 -4.23718 113.536 -26.0742 1.7008 -1.96867 -4.20039 8.4992 0.73934 11.7046 -90.3281 3.46752 1.34629 -0.637417 -8.20289 1.31694 -0.696065 -30.7434 1.47561 -0.203263 -10.7308 1.47561 -0.203253 87.0051 -17.1405 -120.02 -6.31649 20.2747 -46.8604 5.25292 -2.51222 -8.75375 -1.3247 0.00112538 -26.9375 -89.9259 -26.0969 72.0351 1.23753 -8.7958 -77.534 1.81758 -18.2238 -0.912391 -23.4305 2.28422 -17.0949 46.2544 -1.138 -0.953657 -14.2623 -0.507899 -0.241501 
31.7519 48.8007 -0.800055 -4.15568 -71.9353 -4.75399 -31.7442 56.1305 -21.324 -133.7 24.0424 10.4832 90.2149 13.9436 0.374752 -2.0996 2.31231 -0.225264 49.8444 64.8987 -169.597 -127.361 -26.3754 -3.20366 109.073 -24.2068 0.575625 -1.11551 -4.81047 9.43861 0.71595 11.2372 -90.2192 4.40171 1.34143 -0.441479 -7.26865 1.3207 -0.500102 -29.8094 1.41208 -0.0178359 -9.79668 1.41208 -0.0178271 87.3681 -17.195 -119.129 -4.40046 20.2095 -48.3801 4.88855 -1.77461 -8.82837 -1.82698 0.130974 -27.1706 -89.8946 -26.5371 72.2657 -0.00806312 -8.58483 -77.6636 2.46347 -15.7727 -0.986181 -23.2243 2.29945 -17.305 48.1193 -1.42933 -1.05622 -14.7566 -0.721742 -0.0510222 
31.5095 55.904 -2.19772 -2.6087 -65.6 -3.02465 -35.2416 60.6809 -19.8468 -120.221 27.681 5.67714 89.1837 13.4273 -0.38663 -2.5576 2.32875 -0.203938 53.5304 65.2797 -171.584 -114.756 -29.0525 -0.446009 103.673 -21.907 -0.766017 0.394833 -4.25873 8.74522 0.705953 10.7948 -90.1715 5.28605 1.33951 -0.364045 -6.38427 1.3222 -0.422672 -28.925 1.38697 0.055436 -8.91233 1.38699 0.0554315 86.9921 -18.2666 -119.268 -3.75974 19.9059 -48.507 4.87656 -4.59737 -8.36411 -2.64645 0.158891 -26.1239 -90.0096 -26.9345 72.1871 -1.17456 -8.26299 -77.4498 3.22852 -9.36399 -1.80767 -22.5911 2.3108 -17.7799 48.2857 -1.99219 -1.67577 -14.8009 -0.940857 0.37185 
31.2404 63.8839 -3.11547 -2.00702 -58.862 -1.93784 -39.2989 66.0159 -17.4732 -103.014 30.9139 -2.12533 84.822 11.3258 -0.769747 2.22306 1.10277 0.665375 59.9813 66.3008 -177.049 -98.587 -30.55 4.67703 98.004 -18.3379 -0.0433594 1.18247 -5.25047 10.2654 0.694148 10.322 -90.1558 6.23169 1.32092 -0.349456 -5.43863 1.30425 -0.407273 -27.9792 1.36486 0.0637644 -7.96654 1.36486 0.0637519 86.5429 -19.4047 -119.519 -3.56506 18.695 -47.325 4.16599 -6.22405 -9.00102 -3.92899 0.321786 -25.4961 -90.1306 -27.6385 72.2111 -0.524092 -7.69306 -76.3086 3.27336 -3.21831 -3.63821 -21.186 2.09948 -17.523 48.0628 -2.035 -1.58615 -13.7914 -0.936137 -0.495003 
31.141 71.9371 -3.47715 -1.9031 -53.5608 -1.74869 -51.2466 71.8652 -5.99301 -82.0857 34.0644 -12.9596 80.6113 9.29025 0.41497 2.76391 0.0369493 1.72891 71.6774 67.9147 171.66 -78.7481 -35.2682 12.4639 89.333 -14.9811 -3.97586 3.03062 -5.94301 11.4888 0.669835 9.86573 -90.0983 7.14385 1.29548 -0.251801 -4.52648 1.28314 -0.308597 -27.0668 1.31125 0.149238 -7.05414 1.31125 0.149234 86.4441 -19.7992 -119.478 -2.69211 16.6001 -45.3706 3.99296 -10.2081 -10.6102 -3.78801 0.160572 -26.4934 -90.238 -28.1283 72.1846 0.0800516 -6.5944 -74.5756 3.60643 4.22411 -5.947 -22.1074 2.28801 -17.9627 48.1861 -1.65718 -1.23763 -13.3135 -0.744013 -0.857455 
31.234 79.307 -3.38486 -1.89983 -50.7463 -2.40688 -84.1733 76.557 26.076 -60.0005 31.2327 -24.1775 75.5262 6.68511 1.18482 2.36092 3.00799 -1.34578 91.4976 69.9814 153.287 -60.147 -32.0256 18.3425 82.9569 -10.8119 -2.62899 4.70025 -5.8762 11.5762 0.553989 9.46985 -89.9631 7.93433 1.12206 0.0109711 -3.73615 1.12145 -0.0384383 -26.2749 1.06687 0.347729 -6.26228 1.06688 0.347723 85.8742 -21.0026 -119.945 -1.77412 14.6383 -43.3586 3.01209 -14.2523 -13.0253 -5.09819 0.230605 -25.6925 -90.1999 -28.9114 72.5442 2.08664 -4.95293 -72.2372 3.1031 7.13055 -8.22158 -21.0054 2.26302 -18.6435 48.5523 -1.62656 -1.36931 -13.664 -0.652122 -0.669317 
31.4022 84.8821 -2.88003 -2.50432 -52.3586 -3.08329 -129.707 73.5658 69.7975 -45.4429 24.0232 -28.1919 72.8894 5.22501 -0.281862 4.06406 1.61275 -0.0343802 119.063 68.1212 127.879 -46.5255 -27.3676 20.3123 77.8248 -8.08004 -2.52517 6.53651 -5.83633 11.7217 0.500606 9.25886 -89.9414 8.356 1.02489 0.0535255 -3.31453 1.02625 0.00835795 -25.8526 0.961414 0.359107 -5.83998 0.961417 0.359111 85.2721 -22.4282 -120.321 -0.897649 12.1237 -40.8597 1.81594 -15.4745 -15.5314 -6.80719 0.493455 -25.6979 -90.2325 -28.9469 72.4941 0.645809 -2.82283 -70.166 3.86037 11.7986 -9.05092 -20.0438 2.15192 -18.7195 47.0511 -1.50948 -2.10103 -12.5254 -0.234627 0.0175283 
31.5068 88.9305 -1.73224 -3.52826 -57.3032 -3.84931 -153.105 65.4516 89.6372 -38.8429 17.7056 -25.2039 70.4171 4.35605 -0.793729 8.05191 1.49619 -0.233049 141.324 61.8189 108.777 -38.8398 -21.9843 17.822 73.9648 -6.21726 -2.15831 10.7885 -4.74803 10.3393 0.421183 9.13642 -89.9589 8.6011 0.858638 0.0267167 -3.06955 0.858972 -0.0111062 -25.6068 0.810905 0.283562 -5.59417 0.810905 0.283552 85.3418 -23.6252 -119.415 1.7713 9.60191 -39.1558 0.394218 -17.1651 -19.0289 -7.48013 0.535761 -25.4104 -90.129 -29.9977 73.0659 0.482926 -0.228509 -68.3518 3.26807 12.1315 -9.72429 -20.0815 2.07893 -18.2479 44.583 -1.66154 -3.35691 -11.7764 0.197287 0.564492 
31.4889 91.9468 0.0162441 -4.2029 -63.8465 -4.62241 -162.722 55.2239 94.8853 -35.5426 12.392 -19.1996 70.2083 4.14665 -1.72152 11.3781 -0.00514929 1.3055 154.855 53.0695 98.3817 -34.9548 -16.3707 13.3328 72.238 -5.38626 -1.3662 13.9446 -4.00309 9.26306 0.339708 8.92811 -89.9758 9.01774 0.688522 0.000276856 -2.65302 0.68785 -0.0300407 -25.1895 0.656598 0.207193 -5.17689 0.656593 0.207177 85.458 -24.213 -118.818 5.48783 7.69145 -35.592 -0.979112 -17.6602 -23.4074 -8.09348 0.638849 -25.5064 -90.395 -32.2493 73.3335 1.15619 2.64871 -64.1873 3.56756 10.8485 -14.3807 -18.1306 1.5942 -16.4732 38.5341 -1.55398 -3.22213 -10.6131 0.0542682 0.215316 
31.5181 93.8871 2.38977 -6.39848 -70.6739 -7.35021 -167.644 44.8203 96.1487 -33.4012 7.76088 -14.1792 71.0159 4.48187 -2.69973 12.0654 -0.401551 1.75178 162.361 44.0275 93.1451 -33.071 -13.08 9.10674 71.5973 -5.13627 -0.529683 18.1353 -2.50302 6.47544 0.278184 8.68789 -89.9181 9.49788 0.591625 0.117641 -2.17295 0.596219 0.0914736 -24.709 0.528911 0.290012 -4.69631 0.528911 0.290009 85.98 -24.4727 -117.578 10.2306 6.92966 -32.5867 0.00274518 -13.2354 -26.6354 -6.65021 0.718542 -28.9068 -89.9897 -34.19 74.6948 -0.629289 4.65396 -61.2433 5.23316 12.0034 -18.1464 -21.2701 2.26292 -18.4415 31.5753 -1.15075 -1.81611 -10.8292 -0.249649 -1.15013 
